# xmcd
#
# Track frame offsets:
# 150
# 22673
# 37626
# 55522
# 70792
# 88497
# 106031
# 131715
# 147525
# 166652
# 182994
# 200115
# 217662
# 233789
# 249436
# 262976
# 281281
# 293148
# 309956
# 324215
#
# Disc length: 4537 seconds
#
#
# Revision: 0
# Processed by: cddbd v1.5.1PL2 Copyright (c) Steve Scherf et al.
# Submitted via: FreeRIP 2.944 
#
DISCID=0a11b714
DTITLE=VARIOS - SELEÇAO SERTANEJA - ESPECIAL SERTANEJO 2006_1
DYEAR=2006
DGENRE=SERTANEJO
TTITLE0=ARRASTA A CADEIRA
TTITLE1=CASO MARCADO
TTITLE2=DONA DO MEU DESTINO
TTITLE3=TÔ MAL
TTITLE4=POR TE AMAR DEMAIS
TTITLE5=ACIDENTE DE AMOR
TTITLE6=OS AMANTES
TTITLE7=PRA QUE CHORAR
TTITLE8=HOMEM CARENTE
TTITLE9=ME APAIXONEI
TTITLE10=FOLHA SECA
TTITLE11=MEU PRESENTE É VOCÊ
TTITLE12=AMOR E PAIXÃO
TTITLE13=DUAS VEZES VOCÊ
TTITLE14=PEÃO DE VITRINE
TTITLE15=ARRAZOU
TTITLE16=CAI SERENO
TTITLE17=BEBO PRA CARAI
TTITLE18=NÓIS É FEIO MAS TÁ NA MODA
TTITLE19=VÔO 007
EXTD=
EXTT0=Roberto Carlos e Chitãzinho Xororó
EXTT1=Cesar Menote e Fabiano
EXTT2=Zé Henrique e Gabriel
EXTT3=Rio Negro e Solimoes
EXTT4=Bruno e Marrone
EXTT5=Gino e Geno
EXTT6=Daniel
EXTT7=Guilherme e Santiago
EXTT8=Rick e Renner
EXTT9=Cesar Menote e Fabiano
EXTT10=Erich e Bruno
EXTT11=Bruno e Marrone
EXTT12=TÂNIA MARA
EXTT13=LEONARDO
EXTT14=GIAN E GIOVANI
EXTT15=ZÉ HENRIQUE E GABRIEL
EXTT16=DI PAULO E PAULINO
EXTT17=GINO E GENO
EXTT18=JUNIO E JUNIOR
EXTT19=ROMES E CARLINHOS
PLAYORDER=
